HIERARCHY
ROOT root
{
	OFFSET 0.000000 0.000000 0.000000
	CHANNELS 6 Xposition Yposition Zposition Zrotation Yrotation Xrotation
	JOINT lhip
	{
		OFFSET 0.058581 -0.082280 -0.017664
		CHANNELS 3 Zrotation Yrotation Xrotation
		JOINT lknee
		{
			OFFSET 0.043451 -0.386469 0.008037
			CHANNELS 3 Zrotation Yrotation Xrotation
			JOINT lankle
			{
				OFFSET -0.014790 -0.426874 -0.037428
				CHANNELS 3 Zrotation Yrotation Xrotation
				JOINT ltoe
				{
					OFFSET 0.041054 -0.060286 0.122042
					CHANNELS 3 Zrotation Yrotation Xrotation
					End Site
					{
						OFFSET 0.000000 0.000000 0.000000
					}
				}
			}
		}
	}
	JOINT rhip
	{
		OFFSET -0.060310 -0.090513 -0.013543
		CHANNELS 3 Zrotation Yrotation Xrotation
		JOINT rknee
		{
			OFFSET -0.043257 -0.383688 -0.004843
			CHANNELS 3 Zrotation Yrotation Xrotation
			JOINT rankle
			{
				OFFSET 0.019056 -0.420046 -0.034562
				CHANNELS 3 Zrotation Yrotation Xrotation
				JOINT rtoe
				{
					OFFSET -0.034840 -0.062106 0.130323
					CHANNELS 3 Zrotation Yrotation Xrotation
					End Site
					{
						OFFSET 0.000000 0.000000 0.000000
					}
				}
			}
		}
	}
	JOINT lowerback
	{
		OFFSET 0.004439 0.124404 -0.038385
		CHANNELS 3 Zrotation Yrotation Xrotation
		JOINT upperback
		{
			OFFSET 0.004488 0.137956 0.026820
			CHANNELS 3 Zrotation Yrotation Xrotation
			JOINT chest
			{
				OFFSET -0.002265 0.056032 0.002855
				CHANNELS 3 Zrotation Yrotation Xrotation
				JOINT lowerneck
				{
					OFFSET -0.013390 0.211636 -0.033468
					CHANNELS 3 Zrotation Yrotation Xrotation
					JOINT upperneck
					{
						OFFSET 0.010113 0.088937 0.050410
						CHANNELS 3 Zrotation Yrotation Xrotation
						End Site
						{
							OFFSET 0.000000 0.000000 0.000000
						}
					}
				}
				JOINT lclavicle
				{
					OFFSET 0.071702 0.114000 -0.018898
					CHANNELS 3 Zrotation Yrotation Xrotation
					JOINT lshoulder
					{
						OFFSET 0.122921 0.045205 -0.019046
						CHANNELS 3 Zrotation Yrotation Xrotation
						JOINT lelbow
						{
							OFFSET 0.255332 -0.015649 -0.022946
							CHANNELS 3 Zrotation Yrotation Xrotation
							JOINT lwrist
							{
								OFFSET 0.265709 0.012698 -0.007375
								CHANNELS 3 Zrotation Yrotation Xrotation
								End Site
								{
									OFFSET 0.000000 0.000000 0.000000
								}
							}
						}
					}
				}
				JOINT rclavicle
				{
					OFFSET -0.082954 0.112472 -0.023707
					CHANNELS 3 Zrotation Yrotation Xrotation
					JOINT rshoulder
					{
						OFFSET -0.113228 0.046853 -0.008472
						CHANNELS 3 Zrotation Yrotation Xrotation
						JOINT relbow
						{
							OFFSET -0.260127 -0.014369 -0.031269
							CHANNELS 3 Zrotation Yrotation Xrotation
							JOINT rwrist
							{
								OFFSET -0.269108 0.006794 -0.006027
								CHANNELS 3 Zrotation Yrotation Xrotation
								End Site
								{
									OFFSET 0.000000 0.000000 0.000000
								}
							}
						}
					}
				}
			}
		}
	}
}
MOTION
Frames: 8
Frame Time: 0.033333
0.198898 -0.069681 0.986978 127.806025 5.694285 88.124714 29.843312 16.146641 9.568889 2.728939 11.238327 25.692649 -30.866023 6.741756 23.268881 0.000000 -0.000000 0.000000 8.976696 13.406151 -17.925334 1.742922 7.917985 26.532869 7.912945 16.656880 -3.642980 0.000000 -0.000000 0.000000 -15.764416 -11.033558 13.633223 -0.775181 -23.589936 5.280038 -0.222238 -8.037060 -15.682772 -10.609027 57.982885 4.290132 -0.099524 28.990218 2.086131 26.851199 -57.643355 -36.779783 2.656632 -75.203484 -26.193264 14.336949 -30.497217 -5.870954 9.100898 -29.031701 0.667743 -3.635894 16.808172 -13.271354 31.908585 30.009151 -4.104481 -112.039091 41.419154 -74.527195 -54.836883 12.408513 -6.672680 
0.191661 -0.068584 0.987831 128.988286 5.718215 88.503501 29.236642 16.100223 9.098854 2.123652 10.937461 25.091492 -29.483612 5.715043 19.950340 0.000000 -0.000000 0.000000 8.416536 13.108847 -18.398725 1.638350 7.634948 26.056117 8.270453 16.062912 -3.521228 0.000000 -0.000000 0.000000 -15.574784 -10.841129 14.087199 -0.695866 -23.570405 5.396239 -0.027289 -8.100310 -15.566940 -10.366782 57.457027 4.835959 -0.133468 29.308565 1.973336 26.293625 -57.885302 -36.176636 -0.207573 -74.844855 -23.817455 13.953830 -29.579684 -5.396360 7.425036 -27.265239 0.587527 -3.611866 17.343818 -13.159424 33.407361 30.388715 -3.309276 -110.373905 40.983729 -74.036067 -53.254383 10.148388 -7.909287 
0.182023 -0.067634 0.988964 130.902313 5.781378 88.861221 28.669221 16.238900 8.440080 1.577421 11.280194 24.272594 -27.803834 4.888628 16.268330 0.000000 -0.000000 0.000000 7.658457 12.695055 -18.828392 1.466758 7.060698 25.430802 8.727876 15.256779 -3.177228 0.000000 -0.000000 0.000000 -15.248870 -10.653610 15.223267 -0.388678 -23.517981 4.958345 0.198538 -8.317931 -14.945988 -10.745602 57.010674 4.494266 -0.234776 29.091629 2.145972 25.432139 -57.727539 -35.250592 -2.947982 -74.949844 -21.811891 13.386622 -28.502554 -4.505200 6.072745 -25.489156 -0.297094 -3.484077 17.461830 -13.171877 35.268027 31.084078 -2.051336 -108.377348 40.924003 -73.091854 -52.773756 7.965598 -9.404942 
0.170378 -0.066532 0.989625 133.499413 5.778088 89.364022 27.827425 16.627357 7.521303 1.169240 11.793354 23.162914 -25.886485 3.800924 12.320826 0.000000 -0.000000 0.000000 6.511011 11.497428 -19.466387 1.362546 5.967415 24.823079 9.220277 14.824758 -2.846474 0.000000 -0.000000 0.000000 -14.712226 -10.481727 16.277019 -0.153253 -23.567043 4.765893 0.320900 -8.501811 -14.195226 -10.807829 56.581045 4.133976 -0.130204 28.906421 2.743781 24.584640 -57.575527 -34.504061 -7.050548 -75.111713 -18.711477 12.646022 -27.278750 -3.696890 4.544924 -23.867823 -0.828265 -3.120443 17.521664 -13.135177 37.317086 31.969350 -0.832401 -106.260252 40.662526 -72.179003 -51.579786 6.310146 -10.326374 
0.156503 -0.065935 0.989996 136.404461 5.803221 90.061636 26.951724 17.033444 6.459699 0.608344 12.776882 21.587095 -24.145729 2.831899 8.542182 0.000000 -0.000000 0.000000 5.221364 10.612255 -20.176834 1.221100 4.883996 23.961917 9.823379 13.971849 -2.567341 0.000000 -0.000000 0.000000 -14.194165 -10.146401 17.359532 0.309596 -23.490015 4.564362 0.655013 -8.628930 -13.580059 -10.309898 55.856951 4.355637 -0.242909 28.633254 3.294428 23.311662 -57.696526 -33.065528 -11.105207 -75.003803 -15.584654 12.002091 -25.821911 -2.960031 3.048270 -22.310446 -1.348608 -2.297695 17.871174 -12.617805 39.098134 32.541754 0.375713 -103.813065 40.426434 -70.846107 -49.908711 4.263416 -11.595623 
0.140807 -0.065639 0.989730 139.998755 5.830240 90.811473 25.939871 17.155773 5.201142 -0.174562 13.369872 19.716282 -22.040895 1.560097 4.544364 0.000000 -0.000000 0.000000 3.715506 9.613865 -20.940821 1.203764 3.139366 23.136660 10.524417 12.623586 -2.173226 0.000000 -0.000000 0.000000 -13.434841 -9.968151 18.513633 0.880256 -23.474710 4.523877 0.982157 -8.815471 -12.959238 -10.218204 54.849011 4.306098 -0.163022 28.435189 3.954843 21.322466 -57.440225 -31.090551 -16.861086 -75.007648 -10.835298 11.297576 -24.306159 -1.929920 1.869048 -21.196512 -2.279346 -1.112959 18.189496 -12.013178 41.253912 33.178788 2.106783 -101.035024 40.218306 -69.680081 -48.697020 2.819043 -13.099505 
0.122437 -0.066438 0.988984 144.233767 5.698003 91.792732 24.457063 17.093866 3.150487 -0.939562 14.120980 18.009355 -19.313080 0.631049 0.941581 0.000000 -0.000000 0.000000 2.014881 8.369998 -21.858922 0.923223 1.639613 22.531505 10.841787 11.181069 -1.851646 0.000000 -0.000000 0.000000 -12.177245 -10.030392 19.813882 1.624010 -23.340579 4.070355 1.292663 -9.553556 -11.873426 -12.270098 53.155448 1.850921 0.024284 28.136224 5.030024 19.348457 -55.595116 -29.700782 -27.898137 -75.125497 -1.985989 10.911465 -23.527702 -0.581590 1.546046 -19.663968 -4.202761 -0.341884 18.167952 -11.501811 44.860159 34.604205 4.431225 -98.257133 40.116121 -68.357812 -47.099176 1.246127 -14.034556 
0.101659 -0.068112 0.987460 149.377591 5.423031 92.946449 22.652908 16.833683 0.178935 -1.888865 14.341567 16.716331 -16.540785 -0.268261 -2.600499 0.000000 -0.000000 0.000000 -0.044650 7.231615 -22.979137 0.434620 -0.607169 22.215783 11.475266 9.161182 -1.876650 0.000000 -0.000000 0.000000 -11.288953 -9.216037 20.554634 2.342835 -23.481102 4.561247 1.771053 -9.206895 -11.584037 -8.621538 50.917019 5.248951 -0.163686 26.947265 5.214045 15.542064 -58.686958 -25.198292 -29.671894 -73.689636 -0.545327 10.426174 -21.319514 -1.103266 0.984649 -18.856062 -3.808695 1.703060 18.972072 -10.813243 46.965787 32.773054 5.983052 -95.349979 39.444349 -67.618526 -45.821051 -0.424922 -15.115660 
